#!OML:ASF H:\Terrain\Patient Classification 1\Walking\liu\liu.ASF
:FULLY-SPECIFIED
:DEGREES
194
root 8.132470 16.636700 -10.254800 7.021930 4.129570 -2.840120
lowerback -4.664396 1.840674 1.125619
upperback -1.659427 2.373250 3.680424
thorax 0.807958 1.195293 3.264393
lowerneck -14.889930 -7.532515 -17.547531
upperneck 14.911271 -9.736859 17.839140
head 8.669837 -4.132425 7.793423
rclavicle 0.000000 0.000000
rhumerus -40.813301 9.835772 -86.156509
rradius 53.342194
rwrist -29.414221
rhand -40.019321 -26.585352
rfingers 7.837522
rthumb -10.425405 -59.328938
lclavicle 0.000000 0.000000
lhumerus -54.188751 -10.959850 105.496384
lradius 33.907719
lwrist 15.516821
lhand -13.746810 -27.398140
lfingers 7.837522
lthumb 14.935690 5.092791
rfemur -11.003630 6.303627 31.773390
rtibia 26.673460
rfoot -23.161711 1.299012
rtoes -11.204600
lfemur -43.038708 6.544472 -21.789791
ltibia 49.431034
lfoot -16.284290 10.846462
ltoes -13.853510
195
root 8.138540 16.624399 -10.125900 6.993900 4.117590 -2.853290
lowerback -4.862891 1.611786 0.868009
upperback -0.941206 2.047584 3.705691
thorax 1.662287 1.024277 3.440811
lowerneck -17.562160 -7.667473 -16.469421
upperneck 15.602621 -9.746463 17.185631
head 9.293515 -4.011678 7.351410
rclavicle -0.000000 -0.000000
rhumerus -38.991150 9.872027 -86.114052
rradius 53.802761
rwrist -28.219179
rhand -38.411121 -29.494080
rfingers 7.837522
rthumb -8.873468 -62.302685
lclavicle -0.000000 -0.000000
lhumerus -52.813095 -11.010120 105.287605
lradius 33.285233
lwrist 15.092330
lhand -14.274590 -27.360741
lfingers 7.837522
lthumb 14.427051 5.163631
rfemur -10.042902 6.101018 31.883722
rtibia 25.913580
rfoot -22.804102 1.539450
rtoes -10.719610
lfemur -43.442741 6.015769 -21.773180
ltibia 47.355110
lfoot -16.168461 10.439044
ltoes -13.006730
196
root 8.141820 16.623301 -9.996100 6.940140 3.990080 -3.187970
lowerback -4.660106 1.652035 1.112804
upperback -1.209318 2.103937 3.854851
thorax 1.273437 1.056604 3.448346
lowerneck -16.753769 -7.574820 -16.506599
upperneck 15.278231 -9.649738 17.019751
head 9.016932 -4.019059 7.313900
rclavicle -0.000000 0.000000
rhumerus -39.230511 9.909549 -86.265419
rradius 54.007801
rwrist -28.170891
rhand -38.030739 -30.439310
rfingers 7.837522
rthumb -8.506333 -63.261772
lclavicle -0.000000 0.000000
lhumerus -53.610592 -11.096690 105.712753
lradius 33.068752
lwrist 14.269200
lhand -14.912590 -27.125561
lfingers 7.837522
lthumb 13.811931 5.437355
rfemur -9.116162 5.987058 32.376522
rtibia 25.207161
rfoot -22.464972 1.670108
rtoes -9.848202
lfemur -43.800243 5.665363 -21.333071
ltibia 45.264889
lfoot -16.020620 10.280556
ltoes -13.073610
197
root 8.147330 16.614000 -9.868080 6.915680 3.814220 -3.592560
lowerback -4.951705 1.724349 1.419726
upperback -0.344430 2.141502 3.963366
thorax 2.331186 1.068167 3.419328
lowerneck -19.736311 -7.962603 -15.785440
upperneck 15.925690 -9.921251 16.419371
head 9.744768 -4.029355 6.909870
rclavicle 0.000000 0.000000
rhumerus -37.712070 11.421520 -87.394562
rradius 56.303940
rwrist -33.971081
rhand -43.780773 -38.844849
rfingers 7.837522
rthumb -14.053270 -71.392868
lclavicle 0.000000 0.000000
lhumerus -51.949478 -11.349910 105.553139
lradius 32.672642
lwrist 13.871441
lhand -15.109160 -26.934820
lfingers 7.837522
lthumb 13.622400 5.639656
rfemur -8.207595 6.058096 32.929710
rtibia 24.374460
rfoot -22.263010 1.765137
rtoes -9.209167
lfemur -44.151253 5.431525 -20.782629
ltibia 43.195240
lfoot -15.947250 9.993402
ltoes -12.802350
198
root 8.158670 16.609301 -9.730640 6.864080 3.591860 -3.464540
lowerback -4.832311 1.762585 1.325940
upperback -0.970974 2.226543 3.885354
thorax 1.615328 1.115774 3.377418
lowerneck -17.512880 -7.564766 -16.076170
upperneck 15.719331 -9.595278 16.566660
head 9.244863 -3.973530 7.085760
rclavicle -0.000000 -0.000000
rhumerus -38.843643 10.532379 -86.895821
rradius 55.404911
rwrist -29.722002
rhand -39.238430 -34.378410
rfingers 7.837522
rthumb -9.671838 -67.154892
lclavicle -0.000000 -0.000000
lhumerus -53.413250 -10.797347 105.495499
lradius 32.519192
lwrist 13.060081
lhand -14.467091 -26.657841
lfingers 7.837522
lthumb 14.241481 5.878389
rfemur -6.953705 5.928813 32.755581
rtibia 23.284582
rfoot -22.125950 2.495680
rtoes -8.240738
lfemur -44.284241 5.143468 -20.866890
ltibia 41.143631
lfoot -16.056700 9.608127
ltoes -13.013110
199
root 8.166360 16.615499 -9.591830 6.872730 3.390090 -3.393200
lowerback -5.263148 1.583274 1.163305
upperback -0.192568 1.955954 3.702853
thorax 2.670646 0.971457 3.295666
lowerneck -20.109541 -7.531172 -14.956811
upperneck 16.323341 -9.497015 16.216970
head 9.827422 -3.783065 6.768289
rclavicle -0.000000 0.000000
rhumerus -36.907970 10.368226 -87.152557
rradius 54.894402
rwrist -28.188711
rhand -37.232910 -33.034321
rfingers 7.837522
rthumb -7.736267 -65.883728
lclavicle -0.000000 0.000000
lhumerus -51.909439 -10.375673 104.523109
lradius 32.079079
lwrist 12.558041
lhand -13.906640 -26.369862
lfingers 7.837522
lthumb 14.781690 6.131378
rfemur -5.734740 6.009465 32.657242
rtibia 22.203171
rfoot -22.034651 2.969912
rtoes -6.787341
lfemur -44.512711 4.838284 -20.863920
ltibia 39.076729
lfoot -16.247221 9.462794
ltoes -14.506250
200
root 8.175780 16.619900 -9.456990 6.919850 3.180370 -3.628550
lowerback -5.342425 1.847659 1.582449
upperback -0.598940 2.297196 3.733191
thorax 2.295381 1.148686 3.107060
lowerneck -18.614201 -7.593498 -15.844620
upperneck 16.126110 -9.616827 16.688320
head 9.578448 -3.911017 7.084286
rclavicle -0.000000 -0.000000
rhumerus -38.125343 10.192259 -87.140572
rradius 55.442970
rwrist -28.257681
rhand -37.253262 -33.516010
rfingers 7.837522
rthumb -7.755869 -66.364868
lclavicle -0.000000 -0.000000
lhumerus -52.983044 -11.238040 105.414543
lradius 31.770531
lwrist 12.921700
lhand -13.964830 -26.290001
lfingers 7.837522
lthumb 14.725591 6.214890
rfemur -4.760602 5.968061 32.935760
rtibia 21.101851
rfoot -21.767021 3.158738
rtoes -7.412625
lfemur -44.814552 4.526731 -20.440090
ltibia 36.958134
lfoot -16.322460 9.419586
ltoes -15.482720
201
root 8.189490 16.613400 -9.314570 6.902810 2.980700 -3.682420
lowerback -5.456660 1.911481 1.659790
upperback -0.785964 2.380521 3.751198
thorax 2.165713 1.191729 3.087282
lowerneck -17.675131 -7.543349 -16.079580
upperneck 15.863870 -9.574884 16.645750
head 9.323138 -3.949770 7.119640
rclavicle 0.000000 0.000000
rhumerus -38.812401 10.437020 -87.384995
rradius 55.933243
rwrist -28.505291
rhand -37.416721 -33.732159
rfingers 7.837522
rthumb -7.913664 -66.575737
lclavicle 0.000000 0.000000
lhumerus -53.780430 -11.629310 106.025146
lradius 31.592661
lwrist 13.084280
lhand -14.293401 -26.493391
lfingers 7.837522
lthumb 14.408900 6.032048
rfemur -3.588123 5.642098 32.966671
rtibia 19.845100
rfoot -21.338680 3.499760
rtoes -9.096692
lfemur -44.947762 3.849538 -20.049591
ltibia 34.982750
lfoot -16.299360 9.473597
ltoes -15.039970
202
root 8.203710 16.603600 -9.172980 6.954460 2.870180 -3.708460
lowerback -5.563019 1.859517 1.616417
upperback -0.901935 2.313355 3.781074
thorax 2.105565 1.158344 3.139301
lowerneck -17.183981 -7.412570 -15.904571
upperneck 15.576880 -9.408333 16.342590
head 9.088046 -3.910093 7.003810
rclavicle 0.000000 0.000000
rhumerus -38.937691 10.814408 -87.785828
rradius 56.193832
rwrist -28.708021
rhand -37.111580 -33.968662
rfingers 7.837522
rthumb -7.619106 -66.822029
lclavicle 0.000000 0.000000
lhumerus -54.214710 -11.142560 105.880730
lradius 31.440311
lwrist 12.090981
lhand -14.192531 -26.719440
lfingers 7.837522
lthumb 14.506140 5.799739
rfemur -2.342560 5.600859 32.985371
rtibia 18.465811
rfoot -20.966000 3.628878
rtoes -8.997472
lfemur -45.200542 2.974180 -19.599249
ltibia 33.199211
lfoot -16.477671 10.023486
ltoes -15.145461
203
root 8.215780 16.587299 -9.037800 7.029930 2.755410 -4.002700
lowerback -5.652944 1.758878 1.870209
upperback -0.951378 2.162347 3.834952
thorax 2.117357 1.084320 3.044778
lowerneck -17.504410 -7.211787 -15.603940
upperneck 15.916450 -9.185440 16.292980
head 9.205570 -3.777125 6.971591
rclavicle 0.000000 -0.000000
rhumerus -38.861130 11.488729 -88.352219
rradius 56.371040
rwrist -29.030210
rhand -36.852421 -33.658241
rfingers 7.837522
rthumb -7.368922 -66.519753
lclavicle 0.000000 -0.000000
lhumerus -54.272678 -10.748794 105.550507
lradius 31.032650
lwrist 11.611381
lhand -13.526480 -26.677420
lfingers 7.837522
lthumb 15.147990 5.799299
rfemur -1.192686 5.857456 33.360912
rtibia 17.187170
rfoot -20.878771 3.676343
rtoes -9.007251
lfemur -45.605450 2.366133 -18.881062
ltibia 31.515770
lfoot -16.698881 10.859453
ltoes -17.541481
204
root 8.222970 16.571100 -8.894960 7.037490 2.489200 -4.303060
lowerback -5.793458 1.758658 2.148443
upperback -0.937174 2.139456 3.847052
thorax 2.220218 1.074260 2.904891
lowerneck -17.852890 -7.087058 -15.511650
upperneck 16.335550 -9.073339 16.483721
head 9.395166 -3.685055 7.048448
rclavicle 0.000000 -0.000000
rhumerus -39.050659 12.095819 -88.874390
rradius 56.642960
rwrist -29.380781
rhand -36.844501 -33.294140
rfingers 7.837522
rthumb -7.361277 -66.155762
lclavicle 0.000000 -0.000000
lhumerus -54.538113 -11.012321 105.657860
lradius 30.754791
lwrist 11.618420
lhand -13.710840 -26.733191
lfingers 7.837522
lthumb 14.970340 5.755453
rfemur 0.095920 5.914799 33.697842
rtibia 15.879161
rfoot -20.729940 4.060903
rtoes -8.974372
lfemur -45.826775 2.006873 -18.187622
ltibia 29.862471
lfoot -16.506710 11.287540
ltoes -17.931322
205
root 8.235740 16.562599 -8.749140 7.148630 2.064480 -4.344500
lowerback -6.165896 1.994751 2.242361
upperback -0.848189 2.429779 3.791018
thorax 2.516976 1.219548 2.830993
lowerneck -17.921749 -7.205165 -15.776091
upperneck 16.346991 -9.197968 16.644871
head 9.451981 -3.741870 7.133610
rclavicle -0.000000 -0.000000
rhumerus -39.320381 12.191850 -89.020470
rradius 57.144894
rwrist -29.647530
rhand -36.817772 -33.185680
rfingers 7.837522
rthumb -7.335505 -66.048180
lclavicle -0.000000 -0.000000
lhumerus -54.668354 -11.054231 105.634315
lradius 30.638521
lwrist 10.597059
lhand -14.007401 -26.728460
lfingers 7.837522
lthumb 14.684560 5.779081
rfemur 1.316744 5.557695 33.608192
rtibia 14.500640
rfoot -20.324369 4.744388
rtoes -8.368932
lfemur -46.096489 1.797103 -17.853220
ltibia 28.307840
lfoot -16.249750 11.541861
ltoes -16.836931
206
root 8.254290 16.566099 -8.604960 7.394420 1.692590 -4.428430
lowerback -6.717909 2.222561 2.415490
upperback -0.747458 2.693625 3.768699
thorax 2.930268 1.352274 2.757293
lowerneck -18.060352 -7.343061 -15.921511
upperneck 16.292320 -9.312898 16.560280
head 9.479855 -3.806638 7.107518
rclavicle 0.000000 0.000000
rhumerus -39.283531 12.200541 -89.111771
rradius 57.503269
rwrist -29.766331
rhand -36.515160 -31.954121
rfingers 7.837522
rthumb -7.043300 -64.825752
lclavicle 0.000000 0.000000
lhumerus -54.485531 -11.201520 105.669853
lradius 30.351860
lwrist 10.088738
lhand -13.359941 -26.372942
lfingers 7.837522
lthumb 15.308590 6.092790
rfemur 2.446323 5.318412 33.564850
rtibia 12.995070
rfoot -19.735540 5.050331
rtoes -10.182370
lfemur -46.535172 1.253956 -17.309601
ltibia 26.822950
lfoot -16.424541 12.617330
ltoes -18.677780
207
root 8.273010 16.558701 -8.455990 7.522460 1.404140 -4.724000
lowerback -7.069117 2.318239 2.796222
upperback -0.756246 2.777115 3.792657
thorax 3.130897 1.397539 2.591589
lowerneck -17.822529 -7.286752 -15.870470
upperneck 16.165051 -9.255191 16.515400
head 9.380273 -3.791238 7.090204
rclavicle 0.000000 0.000000
rhumerus -39.366032 12.360480 -89.465973
rradius 57.549030
rwrist -29.726072
rhand -36.230701 -30.812870
rfingers 7.837522
rthumb -6.768707 -63.692532
lclavicle 0.000000 0.000000
lhumerus -54.657459 -11.484221 105.808777
lradius 30.182241
lwrist 10.357996
lhand -13.073940 -26.381630
lfingers 7.837522
lthumb 15.584141 6.064927
rfemur 3.786937 5.307995 33.764721
rtibia 11.317791
rfoot -18.998980 5.451963
rtoes -9.911859
lfemur -46.851749 0.419382 -16.324329
ltibia 25.523851
lfoot -16.615280 13.765840
ltoes -21.011211
